Patient4_TMGait_0pt7_01_right_50_EMG.mot
version=1
nRows=13
nColumns=33
inDegrees=no
endheader
time	1LAddLong	2LGlutMax	3LGlutMed	4LIliopsoas	5LSemiMemb	6LBicFemLong	7LRecFem	8LVastMed	9LVastLat	10LGasMed	11LTibAnt	12lTibPost	13LPeroneusLong	14LSol	15LExtDigLong	16LFlexDigLong	17RAddLong	18RGlutMax	19RGlutMed	20RIliopsoas	21RSemiMemb	22RBicFemLong	23RRecFem	24RVastMed	25RVastLat	26RGasMed	27RTibAnt	28RTibPost	29RPeroneusLong	30RSol	31RExtDigLong	32RFlexDigLong
58.355	0.047913	0.36758	0.13046	-0.000305	0.23544	-0.048065	-0.056915	0.000916	-0.20889	-0.012512	-0.069275	0.019989	-0.088654	-0.015259	0.12268	-0.005341	0.010376	0.50552	0.19867	0.23911	0.13275	0.094299	-0.66895	0.048981	-0.061035	0.004425	0.11566	0.011444	-0.091705	-0.3743	-0.021362	-0.014038
58.356	0.053864	0.36057	0.18799	-0.009308	0.23865	-0.1593	-0.093536	-0.010071	-0.26672	-0.037231	-0.011292	0.020905	-0.02655	-0.030975	0.019226	-0.003357	0	0.54382	0.1326	0.065308	0.15472	0.006104	-0.68008	0.016327	-0.042267	0.002747	-0.36041	0.001831	0.20187	-0.21286	-0.021057	-0.01709
58.357	0.042267	0.30014	0.099182	0.011597	0.16144	0.021515	-0.002594	-0.03891	-0.35873	-0.070343	-0.039978	0.026093	0.065918	-0.022736	-0.091705	-0.012817	0.001221	0.45929	0.29831	-0.050507	0.23086	-0.081329	-0.7132	0.005188	-0.05188	-0.009766	-0.21622	-0.002594	0.13016	0.02121	-0.015564	-0.017242
58.358	0.021973	0.36697	-0.052948	0.002899	0.024261	0.24918	0.12039	-0.059509	-0.39398	-0.056763	-0.031586	0.022583	0.089417	-0.015564	-0.19012	-0.0177	0.014954	0.38406	0.32669	-0.14343	0.30731	-0.14389	-0.65323	-0.014191	-0.063171	-0.009766	-0.41809	-0.002441	0.29633	0.17242	-0.028534	-0.018921
58.359	0.039063	0.4924	-0.10925	0.011292	0.010223	-0.042572	0.11978	-0.075684	-0.35111	-0.039215	-0.011292	0.022278	0.04715	-0.017548	-0.21683	-0.019836	0.024109	0.34683	0.27496	-0.18158	0.26672	-0.13886	-0.64728	-0.010834	-0.055084	-0.005646	-0.40619	0.00061	0.47089	0.25207	-0.033112	-0.01709
58.36	0.031128	0.54565	0.036469	0.00351	0.0177	-0.33814	0.016632	-0.070496	-0.19272	-0.028381	-0.002594	0.002899	0.01709	0.040131	-0.1648	-0.021515	0.011292	0.27405	0.36026	-0.14267	0.058441	-0.063019	-0.63843	0.055389	-0.038605	-0.002289	-0.11566	-0.001678	0.31433	0.24536	-0.021515	-0.015259
58.361	0.028839	0.50888	0.22171	-0.010834	0.001526	-0.30823	-0.006409	-0.027924	-0.15747	-0.009613	-0.009155	0.006714	0.023193	0.096436	-0.07431	-0.016174	-0.009003	0.25497	0.28	-0.088348	0.088654	-0.06073	-0.6546	0.049744	-0.031433	-0.005493	-0.012817	-0.007629	0.1358	0.16983	-0.026093	-0.0177
58.362	0.028839	0.45364	0.12436	-0.004578	0.014343	-0.36545	0.003204	0.012665	-0.1384	0.003357	0.039978	0.01297	0.015564	0.07019	-0.030823	-0.01297	-0.009918	0.2652	0.2153	0.007477	0.25604	-0.077972	-0.66528	0.051117	-0.034943	-0.019836	-0.041046	-0.004425	-0.50034	0.2298	-0.031586	-0.015869
58.363	0.023499	0.4306	0.11704	-0.006409	-0.029907	-0.52307	-0.003204	0.014343	-0.069275	0.002594	0.0177	0.009918	0.014801	0.001221	-0.029449	-0.011597	0.000458	0.18951	0.21973	-0.022583	0.26993	-0.060577	-0.63599	0.060425	-0.038757	-0.011444	-0.07019	-0.003052	-1.0529	0.27618	-0.032959	-0.014801
58.364	0.028992	0.48813	0.034485	0.009766	-0.12833	-0.63065	0.006409	-0.012665	-0.043182	0.024719	-0.015106	0.01236	0.031738	-0.07843	-0.059204	-0.01358	0.003052	0.17929	0.3038	-0.028992	0.26566	0.015717	-0.61676	0.057373	-0.027618	-0.013275	0.065918	-0.002289	-0.76004	0.25711	-0.031586	-0.019989
58.365	0.046997	0.48172	-0.099945	0.021667	-0.062256	-0.73837	-0.038605	-0.033875	0.010376	0.010376	-0.04715	0.00473	0.050201	-0.056152	-0.041199	-0.01297	0.024109	0.095978	0.45792	0.033875	0.30579	0.027771	-0.57358	0.022583	-0.027618	-0.016174	0.15045	-0.004425	-0.1207	0.24674	-0.024872	-0.018005
58.366	0.031586	0.43961	0.015106	0.006866	-0.016327	-0.67123	-0.054169	-0.039063	0.036316	0.001678	-0.063629	0.000763	0.043945	0.0177	0.043793	0.003052	0.017853	0.019226	0.52033	0.10727	0.30456	0.047455	-0.61661	0.015869	-0.035706	-0.006866	0.23621	0.000458	0.56534	0.18021	-0.029144	-0.016327
58.367	0.018921	0.42023	0.007935	0.026093	0.014496	-0.50736	-0.067749	-0.043335	0.13443	0.009766	-0.051727	0.006866	0.11505	0.066376	0.11261	-0.01297	-0.00946	0.041656	0.59662	0.15686	0.27878	0.038757	-0.60013	0.023651	-0.027771	0.00412	0.32379	-0.001678	0.52917	0.11429	-0.033112	-0.0177
